<svg version="1.1" xmlns="http://www.w3.org/2000/svg" xmlns:xlink="http://www.w3.org/1999/xlink" width="32px" height="32px" viewBox="0,0,256,256">
    <g fill="none" fill-rule="nonzero" stroke="none" stroke-width="1" stroke-linecap="butt" stroke-linejoin="miter" stroke-miterlimit="10" stroke-dasharray="" stroke-dashoffset="0" font-family="none" font-weight="none" font-size="none" text-anchor="none" style="mix-blend-mode: normal">
        <g transform="scale(8,8)">
            <path d="M26.5,29l1.5,-7l-3.5,-19.5l-3.5,2.5h-6l-3.5,-2.5l-3.5,19.5l1.5,7z" fill="#ff6b01"></path>
            <rect x="17.5" y="20" width="1" height="9" fill="#ffffff"></rect>
            <rect x="-26.34556" y="23.69461" transform="rotate(-83.269)" width="9.062" height="1" fill="#ffffff"></rect>
            <rect x="11.06779" y="21.49853" transform="rotate(-6.707)" width="1" height="9.062" fill="#ffffff"></rect>
            <path d="M9.5,30h-1c-3.331,0 -5.754,-2.17 -6.48,-5.804l1.961,-0.393c0.313,1.568 1.317,4.197 4.519,4.197h1z" fill="#302529"></path>
            <path d="M27.309,30h-18.618l-1.71,-7.983l3.814,-21.25l4.525,3.233h5.359l4.525,-3.232l3.814,21.25zM10.309,28h15.383l1.29,-6.017l-3.186,-17.75l-2.476,1.767h-6.64l-2.475,-1.768l-3.186,17.75z" fill="#302529"></path>
        </g>
    </g>
</svg>